<svg width="482" height="91" viewBox="0 0 482 91" fill="none" xmlns="http://www.w3.org/2000/svg">
<path d="M125.442 74.7745V40.9915C125.442 40.9915 131.197 37.8987 137.251 37.8987C145.044 37.8987 146.303 41.9431 146.303 52.9464V74.7745H152.537V52.768C152.537 37.9582 149.959 32.3078 138.33 32.3078C132.156 32.3078 125.323 36.0549 125.323 36.0549V33.1405H119.148V74.7745H125.442ZM179.751 70.1353C171.479 70.1353 168.721 65.4366 168.721 56.515H196.415L196.774 51.8163C196.774 38.1366 191.08 32.3078 179.87 32.3078C169.261 32.3078 162.367 38.3745 162.367 54.1954C162.367 68.351 166.443 75.6072 178.971 75.6072C185.745 75.6072 195.336 74.2987 195.336 74.2987L195.156 69.3621C195.156 69.3621 186.045 70.1353 179.751 70.1353ZM168.661 51.519C168.721 41.4673 172.737 37.5418 179.87 37.5418C187.303 37.5418 190.48 41.2294 190.48 51.519H168.661ZM202.409 33.1405L215.536 53.9575L202.409 74.7745H209.242L219.493 58.5373L229.683 74.7745H236.516L223.269 53.7791L236.636 33.1405H229.743L219.493 49.4373L209.242 33.1405H202.409ZM266.248 38.5529V33.1405H252.881V20.4124H246.707V33.1405H240.712V38.5529H246.707V60.4405C246.707 72.4549 249.644 75.6667 258.276 75.6667C261.213 75.6667 266.847 74.7745 266.847 74.7745L266.428 69.6C266.428 69.6 261.273 70.1353 258.935 70.1353C253.48 70.1353 252.881 67.5183 252.881 58.4778V38.5529H266.248ZM314.142 38.5529V33.1405H300.835V20.4124H294.601V33.1405H288.667V38.5529H294.601V60.4405C294.601 72.4549 297.538 75.6667 306.17 75.6667C309.107 75.6667 314.742 74.7745 314.742 74.7745L314.322 69.6C314.322 69.6 309.227 70.1353 306.889 70.1353C301.434 70.1353 300.835 67.5183 300.835 58.4778V38.5529H314.142ZM321.875 74.7745H328.169V44.2033C328.169 44.2033 335.542 40.1588 343.454 38.5529V32.2484C335.422 33.7948 328.109 38.7908 328.109 38.7908V33.1405H321.875V74.7745ZM380.559 45.6902C380.559 36.6497 376.543 32.3078 367.012 32.3078C359.819 32.3078 350.588 34.1516 350.588 34.1516L350.827 38.9098C350.827 38.9098 360.838 37.7797 366.712 37.7797C371.747 37.7797 374.265 39.8614 374.265 45.6902V49.3183L361.078 50.5673C352.446 51.4 348.25 54.8497 348.25 62.8791C348.25 71.2654 352.446 75.6072 360.059 75.6072C367.611 75.6072 375.164 72.2765 375.164 72.2765C377.682 74.7745 380.739 75.6072 385.175 75.6072L385.414 70.6706C382.717 70.3732 380.739 69.4216 380.559 67.0425V45.6902ZM374.265 54.017V67.7562C374.265 67.7562 367.312 70.3732 361.078 70.3732C356.822 70.3732 354.724 67.5183 354.724 62.7007C354.724 58.1209 356.702 55.6824 361.857 55.2065L374.265 54.017ZM389.011 33.1405L400.88 74.7745H413.468L425.276 33.1405H418.802L408.672 69.3621H405.555L395.725 33.1405H389.011ZM448.115 70.1353C439.902 70.1353 437.085 65.4366 437.085 56.515H464.779L465.138 51.8163C465.138 38.1366 459.444 32.3078 448.294 32.3078C437.625 32.3078 430.731 38.3745 430.731 54.1954C430.731 68.351 434.867 75.6072 447.335 75.6072C454.169 75.6072 463.7 74.2987 463.7 74.2987L463.52 69.3621C463.52 69.3621 454.409 70.1353 448.115 70.1353ZM437.025 51.519C437.085 41.4673 441.161 37.5418 448.294 37.5418C455.667 37.5418 458.844 41.2294 458.844 51.519H437.025ZM475.448 74.7745H481.742V15H475.448V74.7745Z" fill="white"/>
<path d="M79.9184 2.27063C75.6936 2.27063 71.6449 3.66795 68.6523 6.11325C62.1392 2.4453 54.5698 0.174664 46.6484 0H44.8881C20.0676 0.523992 0 20.785 0 45.5873C0 70.3896 20.0676 90.6507 45.0641 91H46.8244C71.8209 90.6507 91.8885 70.3896 91.8885 45.5873C91.8885 43.666 91.7125 41.7447 91.5365 39.8234L98.0496 26.1996C98.0496 26.1996 98.0496 26.025 98.2257 26.025C98.7537 24.453 98.9298 22.7063 98.9298 20.785C98.5777 10.4798 90.1282 2.27063 79.9184 2.27063ZM33.7981 5.23992C30.2774 8.55854 27.1089 13.4491 24.8205 19.3877H12.6743C17.9552 12.7505 25.3486 7.68522 33.7981 5.23992ZM10.0338 23.0557H23.5882C21.6519 29.1689 20.4197 36.3301 20.4197 43.8407H3.52063C3.8727 36.1555 6.16111 28.9942 10.0338 23.0557ZM3.52063 47.334H20.4197C20.5957 54.8445 21.6519 62.0058 23.5882 68.119H10.0338C6.16111 62.0058 3.8727 54.8445 3.52063 47.334ZM12.6743 71.6123H24.8205C27.1089 77.5509 30.1014 82.4415 33.7981 85.7601C25.3486 83.3148 17.9552 78.2495 12.6743 71.6123ZM44.0079 87.3321C37.8468 86.4587 32.2138 80.3455 28.5171 71.4376H44.0079V87.3321ZM44.0079 68.119H27.2849C25.3486 62.0058 23.9403 55.0192 23.9403 47.334H44.0079V68.119ZM44.0079 43.8407H23.9403C24.1163 36.1555 25.3486 28.9942 27.2849 23.0557H44.0079V43.8407ZM44.0079 19.5624H28.6932C32.3898 10.6545 37.8468 4.71593 44.1839 3.84261V19.5624H44.0079ZM65.8358 8.55854C64.7796 9.78119 63.8995 11.0038 63.1954 12.4012C61.6111 9.60653 59.6747 7.16123 57.5623 5.23992C60.5549 6.11325 63.3714 7.16123 65.8358 8.55854ZM47.5285 3.66795C53.1616 4.54127 58.0904 9.43186 61.7871 16.7678C61.6111 17.6411 61.435 18.5144 61.435 19.3877H47.5285V3.66795ZM47.5285 23.0557H61.435C61.6111 24.1036 61.7871 24.977 61.9631 26.025V26.1996L67.0681 36.8541C67.2441 39.1248 67.4201 41.3954 67.5961 43.8407H47.5285V23.0557ZM47.5285 47.334H67.5961C67.4201 55.0192 66.1879 62.0058 64.2515 68.119H47.5285V47.334ZM47.5285 87.3321V71.4376H63.0193C59.3227 80.5202 53.6896 86.4587 47.5285 87.3321ZM57.7384 85.7601C61.435 82.4415 64.4276 77.5509 66.716 71.6123H78.8622C73.5812 78.2495 66.1879 83.3148 57.7384 85.7601ZM81.5026 68.119H67.9482C69.8846 62.0058 71.1168 54.8445 71.1168 47.334H71.9969L78.158 60.4338C78.5101 61.1324 79.0382 61.4818 79.7423 61.4818C80.4465 61.4818 81.1506 61.1324 81.3266 60.4338L87.4877 47.334H87.8398C87.6637 54.8445 85.3753 62.0058 81.5026 68.119ZM94.353 24.8023L89.9522 34.0595L87.4877 39.2994L85.3753 43.8407L83.7911 47.334L79.9184 55.7179L76.0457 47.334L74.4614 43.8407L70.7647 35.8061L67.9482 29.8676L65.4838 24.6276C65.3077 24.1036 65.1317 23.405 65.1317 22.881C64.9557 22.1823 64.9557 21.309 64.9557 20.6104V19.737C64.9557 19.5624 64.7796 19.5624 64.7796 19.3877H64.9557C64.9557 18.3397 65.1317 17.2917 65.4838 16.4184C66.198 14.152 67.3991 12.0663 69.0044 10.3052C69.8846 9.43186 70.7647 8.73321 71.8209 8.03455C74.1093 6.63724 76.9258 5.76392 79.9184 5.76392C88.1918 5.76392 95.0571 12.4012 95.0571 20.6104C95.0571 22.1823 94.8811 23.405 94.353 24.8023Z" fill="white"/>
<path d="M79.9183 12.2266C75.3414 12.2266 71.4688 16.0692 71.4688 20.6104C71.4688 25.1517 75.3414 28.9943 79.9183 28.9943C84.6711 28.9943 88.3678 25.1517 88.3678 20.6104C88.3678 16.0692 84.6711 12.2266 79.9183 12.2266ZM79.9183 25.6757C77.2778 25.6757 74.9894 23.4051 74.9894 20.7851C74.9894 18.1651 77.2778 15.8945 79.9183 15.8945C82.7348 15.8945 84.8472 18.1651 84.8472 20.7851C84.8472 23.4051 82.7348 25.6757 79.9183 25.6757Z" fill="white"/>
</svg>
