<svg data-v-423bf9ae="" xmlns="http://www.w3.org/2000/svg" viewBox="0 0 473 90" class="iconLeft"><!----><defs data-v-423bf9ae=""><linearGradient data-v-423bf9ae="" gradientTransform="rotate(25)" id="36193de6-91e8-4f28-80c6-330a8d2fc955" x1="0%" y1="0%" x2="100%" y2="0%"><stop data-v-423bf9ae="" offset="0%" style="stop-color: rgb(57, 94, 202); stop-opacity: 1;"></stop><stop data-v-423bf9ae="" offset="100%" style="stop-color: rgb(132, 139, 216); stop-opacity: 1;"></stop></linearGradient></defs><!----><g data-v-423bf9ae="" id="7d51c829-457d-4fc1-aaa1-8e0f50475363" fill="#ffffff" transform="matrix(5.88235305117351,0,0,5.88235305117351,111.14137018235618,12.352941707240667)"><path d="M2.06 10.50L2.06 4.82C2.06 4.82 3.02 4.30 4.03 4.30C5.33 4.30 5.54 4.98 5.54 6.83L5.54 10.50L6.58 10.50L6.58 6.80C6.58 4.31 6.15 3.36 4.21 3.36C3.18 3.36 2.04 3.99 2.04 3.99L2.04 3.50L1.01 3.50L1.01 10.50ZM11.12 9.72C9.74 9.72 9.28 8.93 9.28 7.43L13.90 7.43L13.96 6.64C13.96 4.34 13.01 3.36 11.14 3.36C9.37 3.36 8.22 4.38 8.22 7.04C8.22 9.42 8.90 10.64 10.99 10.64C12.12 10.64 13.72 10.42 13.72 10.42L13.69 9.59C13.69 9.59 12.17 9.72 11.12 9.72ZM9.27 6.59C9.28 4.90 9.95 4.24 11.14 4.24C12.38 4.24 12.91 4.86 12.91 6.59ZM14.90 3.50L17.09 7L14.90 10.50L16.04 10.50L17.75 7.77L19.45 10.50L20.59 10.50L18.38 6.97L20.61 3.50L19.46 3.50L17.75 6.24L16.04 3.50ZM25.55 4.41L25.55 3.50L23.32 3.50L23.32 1.36L22.29 1.36L22.29 3.50L21.29 3.50L21.29 4.41L22.29 4.41L22.29 8.09C22.29 10.11 22.78 10.65 24.22 10.65C24.71 10.65 25.65 10.50 25.65 10.50L25.58 9.63C25.58 9.63 24.72 9.72 24.33 9.72C23.42 9.72 23.32 9.28 23.32 7.76L23.32 4.41ZM33.54 4.41L33.54 3.50L31.32 3.50L31.32 1.36L30.28 1.36L30.28 3.50L29.29 3.50L29.29 4.41L30.28 4.41L30.28 8.09C30.28 10.11 30.77 10.65 32.21 10.65C32.70 10.65 33.64 10.50 33.64 10.50L33.57 9.63C33.57 9.63 32.72 9.72 32.33 9.72C31.42 9.72 31.32 9.28 31.32 7.76L31.32 4.41ZM34.83 10.50L35.88 10.50L35.88 5.36C35.88 5.36 37.11 4.68 38.43 4.41L38.43 3.35C37.09 3.61 35.87 4.45 35.87 4.45L35.87 3.50L34.83 3.50ZM44.62 5.61C44.62 4.09 43.95 3.36 42.36 3.36C41.16 3.36 39.62 3.67 39.62 3.67L39.66 4.47C39.66 4.47 41.33 4.28 42.31 4.28C43.15 4.28 43.57 4.63 43.57 5.61L43.57 6.22L41.37 6.43C39.93 6.57 39.23 7.15 39.23 8.50C39.23 9.91 39.93 10.64 41.20 10.64C42.46 10.64 43.72 10.08 43.72 10.08C44.14 10.50 44.65 10.64 45.39 10.64L45.43 9.81C44.98 9.76 44.65 9.60 44.62 9.20ZM43.57 7.01L43.57 9.32C43.57 9.32 42.41 9.76 41.37 9.76C40.66 9.76 40.31 9.28 40.31 8.47C40.31 7.70 40.64 7.29 41.50 7.21ZM46.03 3.50L48.01 10.50L50.11 10.50L52.08 3.50L51.00 3.50L49.31 9.59L48.79 9.59L47.15 3.50ZM55.89 9.72C54.52 9.72 54.05 8.93 54.05 7.43L58.67 7.43L58.73 6.64C58.73 4.34 57.78 3.36 55.92 3.36C54.14 3.36 52.99 4.38 52.99 7.04C52.99 9.42 53.68 10.64 55.76 10.64C56.90 10.64 58.49 10.42 58.49 10.42L58.46 9.59C58.46 9.59 56.94 9.72 55.89 9.72ZM54.04 6.59C54.05 4.90 54.73 4.24 55.92 4.24C57.15 4.24 57.68 4.86 57.68 6.59ZM60.45 10.50L61.50 10.50L61.50 0.45L60.45 0.45Z"></path></g><!----><g data-v-423bf9ae="" id="9bc78c59-31fb-49b0-8dd6-f13cb90c95f0" transform="matrix(1.727447267483212,0,0,1.727447267483212,-7.9602708936686355,-10.4374286091467)" stroke="none" fill="#ffffff"><switch><g><path d="M50.1 7.4c-2.4 0-4.7.8-6.4 2.2-3.7-2.1-8-3.4-12.5-3.5h-1C16.1 6.4 4.7 18 4.7 32.2c0 14.2 11.4 25.8 25.6 26h1c14.2-.2 25.6-11.8 25.6-26 0-1.1-.1-2.2-.2-3.3l3.7-7.8s0-.1.1-.1c.3-.9.4-1.9.4-3-.2-5.9-5-10.6-10.8-10.6zM23.9 9.1c-2 1.9-3.8 4.7-5.1 8.1h-6.9c3-3.8 7.2-6.7 12-8.1zM10.4 19.3h7.7c-1.1 3.5-1.8 7.6-1.8 11.9H6.7c.2-4.4 1.5-8.5 3.7-11.9zM6.7 33.2h9.6c.1 4.3.7 8.4 1.8 11.9h-7.7c-2.2-3.5-3.5-7.6-3.7-11.9zm5.2 13.9h6.9c1.3 3.4 3 6.2 5.1 8.1-4.8-1.4-9-4.3-12-8.1zm17.8 9c-3.5-.5-6.7-4-8.8-9.1h8.8v9.1zm0-11h-9.5c-1.1-3.5-1.9-7.5-1.9-11.9h11.4v11.9zm0-13.9H18.3c.1-4.4.8-8.5 1.9-11.9h9.5v11.9zm0-13.9H21c2.1-5.1 5.2-8.5 8.8-9v9zM42.1 11c-.6.7-1.1 1.4-1.5 2.2-.9-1.6-2-3-3.2-4.1 1.7.5 3.3 1.1 4.7 1.9zM31.7 8.2c3.2.5 6 3.3 8.1 7.5-.1.5-.2 1-.2 1.5h-7.9v-9zm0 11.1h7.9c.1.6.2 1.1.3 1.7v.1l2.9 6.1c.1 1.3.2 2.6.3 4H31.7V19.3zm0 13.9h11.4c-.1 4.4-.8 8.4-1.9 11.9h-9.5V33.2zm0 22.9V47h8.8c-2.1 5.2-5.3 8.6-8.8 9.1zm5.8-.9c2.1-1.9 3.8-4.7 5.1-8.1h6.9c-3 3.8-7.2 6.7-12 8.1zM51 45.1h-7.7c1.1-3.5 1.8-7.6 1.8-11.9h.5l3.5 7.5c.2.4.5.6.9.6s.8-.2.9-.6l3.5-7.5h.2c-.1 4.3-1.4 8.4-3.6 11.9zm7.3-24.8l-2.5 5.3-1.4 3-1.2 2.6-.9 2-2.2 4.8-2.2-4.8-.9-2-2.1-4.6-1.6-3.4-1.4-3c-.1-.3-.2-.7-.2-1-.1-.4-.1-.9-.1-1.3v-.5c0-.1-.1-.1-.1-.2h.1c0-.6.1-1.2.3-1.7a9.4 9.4 0 0 1 2-3.5c.5-.5 1-.9 1.6-1.3 1.3-.8 2.9-1.3 4.6-1.3 4.7 0 8.6 3.8 8.6 8.5 0 .9-.1 1.6-.4 2.4z"></path><path d="M50.1 13.1c-2.6 0-4.8 2.2-4.8 4.8s2.2 4.8 4.8 4.8c2.7 0 4.8-2.2 4.8-4.8s-2.1-4.8-4.8-4.8zm0 7.7c-1.5 0-2.8-1.3-2.8-2.8 0-1.5 1.3-2.8 2.8-2.8 1.6 0 2.8 1.3 2.8 2.8 0 1.5-1.2 2.8-2.8 2.8z"></path></g></switch></g><!----></svg>